<?xml version="1.0" standalone="no"?>
<!DOCTYPE svg PUBLIC "-//W3C//DTD SVG 20010904//EN"
 "http://www.w3.org/TR/2001/REC-SVG-20010904/DTD/svg10.dtd">
<svg version="1.0" xmlns="http://www.w3.org/2000/svg"
 width="420.000000pt" height="414.000000pt" viewBox="0 0 420.000000 414.000000"
 preserveAspectRatio="xMidYMid meet">

<g transform="translate(0.000000,414.000000) scale(0.100000,-0.100000)"
fill="#000000" stroke="none">
<path d="M1890 3889 c-85 -4 -261 -12 -390 -18 -305 -15 -392 -21 -388 -31 4
-10 359 -335 528 -485 69 -60 161 -142 204 -182 44 -40 82 -73 86 -73 4 0 12
26 19 58 7 31 46 199 87 372 41 173 77 327 81 343 6 31 33 29 -227 16z"/>
<path d="M1186 3288 c-14 -90 -175 -804 -414 -1843 -214 -929 -242 -1050 -242
-1063 0 -9 87 -12 368 -12 l368 0 47 218 c85 398 194 903 281 1297 47 215 101
467 120 560 20 94 38 180 41 192 4 17 -32 67 -173 235 -97 117 -222 268 -276
336 -54 67 -102 122 -106 122 -4 0 -10 -19 -14 -42z"/>
<path d="M2136 2968 c4 -13 45 -140 91 -283 46 -143 102 -321 124 -395 23 -74
46 -140 52 -146 7 -6 53 -26 102 -44 173 -63 395 -152 395 -159 0 -4 -15 -18
-32 -31 -18 -13 -99 -74 -179 -137 l-146 -113 40 -135 c22 -74 38 -137 35
-140 -3 -3 -79 8 -168 24 l-162 30 -60 -40 c-39 -27 -71 -60 -95 -97 -20 -31
-138 -210 -263 -397 -255 -383 -246 -370 -234 -363 574 350 877 529 889 524 5
-2 204 -130 440 -285 289 -190 431 -277 433 -267 2 8 -13 65 -32 128 -92 297
-202 654 -232 758 l-34 114 63 56 c63 58 174 154 509 443 103 88 186 162 185
163 -3 3 -64 16 -542 113 l-380 78 -102 79 c-55 43 -194 153 -308 244 -293
233 -379 300 -388 300 -5 0 -5 -10 -1 -22z"/>
</g>
</svg>
